<?xml version="1.0" encoding="UTF-8" standalone="no"?>
<!-- Created with Inkscape (http://www.inkscape.org/) -->

<svg
   width="15.172241mm"
   height="20.641802mm"
   viewBox="0 0 15.172241 20.641801"
   version="1.1"
   id="svg1"
   xmlns="http://www.w3.org/2000/svg"
   xmlns:svg="http://www.w3.org/2000/svg">
  <defs
     id="defs1" />
  <g
     id="layer1"
     transform="translate(-71.353712,-102.93517)">
    <path
       style="font-size:16.9333px;font-family:PlainBlack;-inkscape-font-specification:PlainBlack;fill:#ffffff;stroke-width:0.264583"
       d="m 86.525953,114.78856 q 0,0.16933 -0.237067,0.52493 -0.220133,0.3556 -0.524932,0.8128 -0.304799,0.44027 -0.609599,0.94826 -0.287866,0.49107 -0.423332,0.94827 -0.03387,0 -0.08467,0.0339 -0.03387,0.0508 -0.06773,0.0508 -0.03387,0 -0.287866,-0.32174 -0.254,-0.33866 -0.558799,-0.74506 -0.304799,-0.42333 -0.575732,-0.79587 -0.254,-0.38946 -0.3048,-0.49106 -0.118533,-0.23707 -0.152399,-0.4064 -0.01693,-0.16934 -0.03387,-0.32173 -0.01693,-0.1524 -0.0508,-0.3048 -0.03387,-0.16934 -0.169333,-0.37254 -0.694265,0.8636 -1.049864,1.54093 -0.3556,0.6604 -0.558799,1.1176 -0.2032,0.4572 -0.338666,0.69427 -0.135467,0.23706 -0.389466,0.23706 -0.1016,0 -0.3556,-0.18626 -0.253999,-0.2032 -0.626532,-0.42334 -0.372532,-0.23706 -0.846665,-0.42333 -0.474132,-0.2032 -0.999064,-0.2032 -0.677332,0 -1.269998,0.22013 -0.592665,0.2032 -1.066798,0.54187 -0.474132,0.33867 -0.812798,0.762 -0.338666,0.44026 -0.507999,0.8636 l 0.1524,0.1524 q 0.186266,-0.13547 0.541865,-0.28787 0.355599,-0.1524 0.778932,-0.28787 0.440266,-0.13546 0.880532,-0.22013 0.457199,-0.0847 0.812798,-0.0847 h 1.727197 q 0.626532,0 1.43933,0.22013 0.812798,0.22013 1.54093,0.59266 0.728132,0.37254 1.219198,0.84667 0.507999,0.49106 0.507999,1.016 0,0.67733 -0.423333,1.11759 -0.406399,0.4572 -1.049864,0.72814 -0.643466,0.27093 -1.422397,0.37253 -0.778932,0.1016 -1.523997,0.1016 -0.558799,0 -1.049865,-0.1016 -0.474132,-0.1016 -0.863598,-0.23707 -0.389466,-0.13546 -0.660399,-0.27093 -0.270933,-0.11853 -0.389466,-0.16933 -0.812798,-0.33867 -1.269997,-0.762 -0.440266,-0.4064 -0.677332,-0.762 -0.237067,-0.3556 -0.338666,-0.6096 -0.1016,-0.23707 -0.237067,-0.23707 -0.795865,0.47414 -1.28693,0.88054 -0.474133,0.42333 -0.541866,0.96519 0,0.69427 0.321733,0.98214 0.321732,0.28786 0.711198,0.3556 0.4064,0.0677 0.761999,0 0.355599,-0.0677 0.423332,-0.0677 v 0.254 H 72.70838 q -0.3556,-0.16933 -0.609599,-0.28786 -0.254,-0.1016 -0.423333,-0.254 -0.152399,-0.1524 -0.237066,-0.38947 -0.08467,-0.23707 -0.08467,-0.6604 0,-0.37253 0.287866,-0.79586 0.287866,-0.42334 0.626532,-0.79587 0.355599,-0.3556 0.643465,-0.62653 0.3048,-0.254 0.321733,-0.32173 0.0508,-0.16934 -0.01693,-0.4572 -0.0508,-0.28787 0.01693,-0.762 0.1016,-0.7112 0.406399,-1.27 0.3048,-0.5588 0.694265,-0.9652 0.389466,-0.4064 0.795866,-0.6604 0.406399,-0.25399 0.711198,-0.35559 0.745065,-0.27094 1.185331,-0.33867 0.457199,-0.0847 0.711199,-0.0847 0.270933,0 0.389466,0 0.135466,0 0.220133,-0.11853 0.08467,-0.11853 0.169333,-0.38947 0.101599,-0.28786 0.321732,-0.88053 0.389466,-1.04986 0.609599,-1.74413 0.237066,-0.7112 0.338666,-1.13453 0.118533,-0.44026 0.135466,-0.62653 0.03387,-0.2032 0.03387,-0.254 0,-0.42333 -0.253999,-0.77893 -0.254,-0.37253 -0.626533,-0.64347 -0.372532,-0.27093 -0.795865,-0.42333 -0.423332,-0.1524 -0.745065,-0.1524 -0.406399,0 -0.761998,0.28787 -0.338666,0.27093 -0.338666,0.69426 0,0.33867 0.118533,0.49107 0.118533,0.1524 0.287866,0.22013 0.186266,0.0677 0.372532,0.11853 0.2032,0.0508 0.3556,0.2032 -0.1524,0.0677 -0.3048,0.0677 -0.355599,0 -0.643465,-0.13547 -0.287866,-0.1524 -0.507999,-0.3556 -0.2032,-0.22013 -0.321733,-0.47413 -0.118533,-0.254 -0.118533,-0.47413 0,-0.254 0.135467,-0.62654 0.135466,-0.37253 0.440265,-0.7112 0.321733,-0.33866 0.829732,-0.57573 0.507999,-0.23706 1.253064,-0.23706 0.846665,0 1.202265,0.1524 0.372532,0.13546 0.711198,0.1016 -0.541865,-0.72814 -1.253064,-1.016 -0.694265,-0.28787 -1.337731,-0.28787 -0.812798,0 -1.371597,0.27093 -0.558799,0.254 -0.897465,0.67734 -0.321733,0.4064 -0.474132,0.93133 -0.135467,0.508 -0.135467,1.016 0,0.60959 0.237066,1.15146 0.254,0.54187 0.626533,0.94827 0.389465,0.40639 0.863598,0.64346 0.474132,0.23707 0.914398,0.23707 0.270933,0 0.558799,-0.1016 0.287866,-0.1016 0.541866,-0.22014 0.253999,-0.11853 0.423332,-0.2032 0.186266,-0.0847 0.237066,-0.0339 v 0.18626 q -0.541865,0.42334 -0.948265,0.57574 -0.406399,0.1524 -1.066797,0.1524 -0.3556,0 -0.846665,-0.2032 -0.491066,-0.2032 -0.931332,-0.62654 -0.440266,-0.42333 -0.761998,-1.08373 -0.3048,-0.67733 -0.3048,-1.60866 0,-0.93133 0.321733,-1.76106 0.338666,-0.84667 0.897465,-1.4732 0.575732,-0.64347 1.320797,-1.016 0.745065,-0.37253 1.557864,-0.37253 1.134531,0 1.913463,0.49106 0.795865,0.47414 1.236131,0.99907 0.152399,-0.11853 0.220132,-0.254 0.08467,-0.1524 0.135467,-0.3048 0.0508,-0.16933 0.1016,-0.33867 0.06773,-0.18626 0.220133,-0.38946 0.423332,1.59173 0.778931,3.08186 0.372533,1.49013 0.711199,3.08186 0.135466,0.67733 0.220133,1.04986 0.08467,0.3556 0.1524,0.62654 0.06773,0.27093 0.135466,0.5588 0.08467,0.27093 0.220133,0.79586 0.01693,0.0508 0.1016,0.508 0.1016,0.44027 0.253999,0.98213 0.169333,0.52493 0.389466,0.9652 0.220133,0.42333 0.474133,0.42333 0.101599,0 0.270932,-0.1524 0.169333,-0.16933 0.3556,-0.5588 0.08467,0.0508 0.152399,0.11854 0.06773,0.0508 0.06773,0.16933 z m -4.741325,-3.42053 q -0.0508,-0.22013 -0.152399,-0.6604 -0.1016,-0.4572 -0.237066,-0.93133 -0.118534,-0.49106 -0.237067,-0.9144 -0.118533,-0.42333 -0.186266,-0.57573 -0.03387,0.254 -0.2032,0.72813 -0.152399,0.4572 -0.338666,0.9144 -0.186266,0.4572 -0.338666,0.8128 -0.135466,0.3556 -0.135466,0.4064 0,0.0847 0.186266,0.13547 0.186267,0.0339 0.457199,0.0677 0.287867,0.0169 0.609599,0.0169 0.321733,0 0.575732,0 z m 0.4572,2.3876 v -0.59267 h -2.777062 q -0.03387,0.0508 -0.101599,0.2032 -0.0508,0.1524 -0.118534,0.3556 -0.06773,0.2032 -0.135466,0.42333 -0.06773,0.2032 -0.118533,0.3556 0.643465,0.13547 1.049865,0.28787 0.406399,0.13547 0.643465,0.254 0.253999,0.1016 0.355599,0.16933 0.1016,0.0677 0.135467,0.0677 0.08467,0 0.135466,-0.0508 0.0508,-0.0508 0.135466,-0.22013 0.1016,-0.16933 0.270933,-0.4572 0.186267,-0.3048 0.524933,-0.79586 z m 0.440265,7.33212 q 0,-0.4572 -0.457199,-0.79587 -0.457199,-0.33866 -1.185331,-0.57573 -0.728132,-0.23707 -1.64253,-0.3556 -0.914398,-0.11853 -1.811863,-0.11853 -0.575732,0 -1.236131,0.0847 -0.660399,0.0847 -1.219197,0.2032 -0.558799,0.13547 -0.931332,0.3048 -0.372533,0.18627 -0.372533,0.3556 0,0.33867 0.474133,0.8128 0.491066,0.49107 1.236131,0.93133 0.761998,0.4572 1.676396,0.77893 0.914399,0.32174 1.777997,0.32174 0.948265,0 1.64253,-0.2032 0.694265,-0.2032 1.151464,-0.508 0.4572,-0.28787 0.677332,-0.62653 0.220133,-0.33867 0.220133,-0.6096 z"
       id="text1"
       aria-label="A" />
  </g>
</svg>
