<?xml version="1.0" encoding="UTF-8"?>
<svg version="1.1" xmlns="http://www.w3.org/2000/svg" width="28" height="38">
<path d="M0 0 C0.99386719 0.02707031 1.98773437 0.05414063 3.01171875 0.08203125 C4.15060547 0.13423828 4.15060547 0.13423828 5.3125 0.1875 C5.45349121 0.75782959 5.59448242 1.32815918 5.73974609 1.91577148 C6.38056385 4.48770219 7.03384992 7.05630209 7.6875 9.625 C7.90921875 10.52283203 8.1309375 11.42066406 8.359375 12.34570312 C8.57851563 13.19970703 8.79765625 14.05371094 9.0234375 14.93359375 C9.22243652 15.72435303 9.42143555 16.5151123 9.62646484 17.32983398 C10.14640224 19.38949765 10.14640224 19.38949765 12.3125 20.1875 C11.3225 22.6625 11.3225 22.6625 10.3125 25.1875 C8.9925 25.1875 7.6725 25.1875 6.3125 25.1875 C5.6525 24.1975 4.9925 23.2075 4.3125 22.1875 C3.6525 23.5075 2.9925 24.8275 2.3125 26.1875 C0.29427083 25.89453125 -1.72395833 25.6015625 -3.7421875 25.30859375 C-5.76890667 25.0190703 -5.76890667 25.0190703 -7.6875 26.1875 C-7.01203125 26.22488281 -6.3365625 26.26226563 -5.640625 26.30078125 C-4.74859375 26.36652344 -3.8565625 26.43226562 -2.9375 26.5 C-2.05578125 26.55800781 -1.1740625 26.61601562 -0.265625 26.67578125 C2.63553774 27.2516181 4.10475607 28.26346148 6.3125 30.1875 C5.9375 32.625 5.9375 32.625 5.3125 35.1875 C2.12924667 36.77912667 -1.22204345 36.58736037 -4.6875 36.1875 C-7.5 34.6875 -7.5 34.6875 -9.6875 33.1875 C-10.6775 33.1875 -11.6675 33.1875 -12.6875 33.1875 C-13.3475 33.8475 -14.0075 34.5075 -14.6875 35.1875 C-14.09620528 30.45714224 -12.52254942 26.03206257 -9.6875 22.1875 C-7.90234375 21.18359375 -7.90234375 21.18359375 -6 20.5 C-4.906875 20.066875 -3.81375 19.63375 -2.6875 19.1875 C-1.63582473 16.61017086 -1.63582473 16.61017086 -1.6875 14.1875 C-2.450625 14.27 -3.21375 14.3525 -4 14.4375 C-6.6875 14.1875 -6.6875 14.1875 -8.5625 12.625 C-10.17598019 9.12912625 -9.62335076 6.86405655 -8.6875 3.1875 C-6.25471482 -0.26753042 -4.05557584 -0.14313797 0 0 Z M-3.6875 3.1875 C-5.6675 4.1775 -5.6675 4.1775 -7.6875 5.1875 C-7.6875 6.8375 -7.6875 8.4875 -7.6875 10.1875 C-7.460625 9.548125 -7.23375 8.90875 -7 8.25 C-5.6875 6.1875 -5.6875 6.1875 -3.0625 5.4375 C-2.27875 5.355 -1.495 5.2725 -0.6875 5.1875 C-1.6775 4.5275 -2.6675 3.8675 -3.6875 3.1875 Z M-4.6875 9.1875 C-4.3575 10.1775 -4.0275 11.1675 -3.6875 12.1875 C-1.67241642 12.92073796 -1.67241642 12.92073796 0.3125 13.1875 C-0.0175 11.8675 -0.3475 10.5475 -0.6875 9.1875 C-2.0075 9.1875 -3.3275 9.1875 -4.6875 9.1875 Z M1.3125 13.1875 C1.9725 13.8475 2.6325 14.5075 3.3125 15.1875 C3.3125 14.5275 3.3125 13.8675 3.3125 13.1875 C2.6525 13.1875 1.9925 13.1875 1.3125 13.1875 Z M0.3125 18.1875 C-0.0175 18.8475 -0.3475 19.5075 -0.6875 20.1875 C0.6325 20.5175 1.9525 20.8475 3.3125 21.1875 C3.6425 20.1975 3.9725 19.2075 4.3125 18.1875 C2.9925 18.1875 1.6725 18.1875 0.3125 18.1875 Z M-8.6875 29.1875 C-7.3785428 32.30947478 -7.3785428 32.30947478 -4.6875 34.1875 C0.11121024 34.69394046 0.11121024 34.69394046 4.25 32.6875 C4.600625 32.1925 4.95125 31.6975 5.3125 31.1875 C1.89155758 28.90687172 0.63062778 28.96824993 -3.375 29.0625 C-4.36886719 29.08054687 -5.36273438 29.09859375 -6.38671875 29.1171875 C-7.14597656 29.14039062 -7.90523438 29.16359375 -8.6875 29.1875 Z " fill="#FEF6FE" transform="translate(15.6875,0.8125)"/>
<path d="M0 0 C4 1 4 1 4 1 Z " fill="#FFF4FF" transform="translate(2,36)"/>
</svg>
